<svg width="202" height="211" viewBox="0 0 202 211" fill="none" xmlns="http://www.w3.org/2000/svg">
<g clip-path="url(#clip0_82_315)">
<rect width="202" height="211" fill="#D9D9D9"/>
<rect x="20" y="28" width="162" height="155" rx="20" fill="white"/>
<rect x="38" y="50" width="126" height="111" fill="#D9D9D9"/>
<g opacity="0.9">
<path d="M142.107 149V139.444C142.107 134.376 139.945 129.515 136.095 125.931C132.245 122.347 127.024 120.333 121.58 120.333H80.5268C75.0827 120.333 69.8617 122.347 66.0122 125.931C62.1626 129.515 60 134.376 60 139.444V149" stroke="#78866B" stroke-width="10" stroke-linecap="round" stroke-linejoin="round"/>
<path d="M101.053 101.222C112.389 101.222 121.58 92.6659 121.58 82.1111C121.58 71.5563 112.389 63 101.053 63C89.7162 63 80.526 71.5563 80.526 82.1111C80.526 92.6659 89.7162 101.222 101.053 101.222Z" stroke="#78866B" stroke-width="10" stroke-linecap="round" stroke-linejoin="round"/>
</g>
</g>
<defs>
<clipPath id="clip0_82_315">
<rect width="202" height="211" fill="white"/>
</clipPath>
</defs>
</svg>
