<svg width="161" height="162" viewBox="0 0 161 162" fill="none" xmlns="http://www.w3.org/2000/svg">
<line x1="73.7457" y1="45.8582" x2="73.7457" y2="152.367" stroke="#78866B" stroke-width="4"/>
<path d="M95.6334 23.6687C95.6334 35.636 85.932 45.3374 73.9647 45.3374C61.9974 45.3374 52.296 35.636 52.296 23.6687C52.296 11.7014 61.9974 2 73.9647 2C85.932 2 95.6334 11.7014 95.6334 23.6687Z" stroke="#78866B" stroke-width="4"/>
<path d="M146.669 78.4026C146.669 90.3699 136.968 100.071 125 100.071C113.033 100.071 103.332 90.3699 103.332 78.4026C103.332 66.4353 113.033 56.7339 125 56.7339C136.968 56.7339 146.669 66.4353 146.669 78.4026Z" stroke="#78866B" stroke-width="4"/>
<line x1="73.9647" y1="79.3612" x2="103.551" y2="79.3612" stroke="#78866B" stroke-width="4"/>
<path d="M45.3374 101.332C45.3374 113.299 35.636 123 23.6687 123C11.7014 123 2 113.299 2 101.332C2 89.3644 11.7014 79.663 23.6687 79.663C35.636 79.663 45.3374 89.3644 45.3374 101.332Z" stroke="#78866B" stroke-width="4"/>
<line x1="45.1184" y1="100.071" x2="74.7043" y2="100.071" stroke="#78866B" stroke-width="4"/>
<path d="M73.9647 150.507H84.9231" stroke="#78866B" stroke-width="4"/>
<path d="M6.78529 153.195L1.28929 136.395H5.32129L10.0973 151.275H8.08129L13.0733 136.395H16.6733L21.4733 151.275H19.5293L24.4253 136.395H28.1453L22.6493 153.195H18.4733L14.2253 140.139H15.3293L10.9613 153.195H6.78529ZM35.2349 153.387C33.8589 153.387 32.6349 153.099 31.5629 152.523C30.5069 151.947 29.6669 151.163 29.0429 150.171C28.4349 149.163 28.1309 148.019 28.1309 146.739C28.1309 145.443 28.4349 144.299 29.0429 143.307C29.6669 142.299 30.5069 141.515 31.5629 140.955C32.6349 140.379 33.8589 140.091 35.2349 140.091C36.5949 140.091 37.8109 140.379 38.8829 140.955C39.9549 141.515 40.7949 142.291 41.4029 143.283C42.0109 144.275 42.3149 145.427 42.3149 146.739C42.3149 148.019 42.0109 149.163 41.4029 150.171C40.7949 151.163 39.9549 151.947 38.8829 152.523C37.8109 153.099 36.5949 153.387 35.2349 153.387ZM35.2349 150.315C35.8589 150.315 36.4189 150.171 36.9149 149.883C37.4109 149.595 37.8029 149.187 38.0909 148.659C38.3789 148.115 38.5229 147.475 38.5229 146.739C38.5229 145.987 38.3789 145.347 38.0909 144.819C37.8029 144.291 37.4109 143.883 36.9149 143.595C36.4189 143.307 35.8589 143.163 35.2349 143.163C34.6109 143.163 34.0509 143.307 33.5549 143.595C33.0589 143.883 32.6589 144.291 32.3549 144.819C32.0669 145.347 31.9229 145.987 31.9229 146.739C31.9229 147.475 32.0669 148.115 32.3549 148.659C32.6589 149.187 33.0589 149.595 33.5549 149.883C34.0509 150.171 34.6109 150.315 35.2349 150.315ZM44.8174 153.195V140.283H48.3934V143.931L47.8894 142.875C48.2734 141.963 48.8894 141.275 49.7374 140.811C50.5854 140.331 51.6174 140.091 52.8334 140.091V143.547C52.6734 143.531 52.5294 143.523 52.4014 143.523C52.2734 143.507 52.1374 143.499 51.9934 143.499C50.9694 143.499 50.1374 143.795 49.4974 144.387C48.8734 144.963 48.5614 145.867 48.5614 147.099V153.195H44.8174ZM58.179 150.555L58.275 145.995L64.299 140.283H68.763L62.979 146.163L61.035 147.747L58.179 150.555ZM55.083 153.195V135.387H58.827V153.195H55.083ZM64.707 153.195L60.339 147.771L62.691 144.867L69.243 153.195H64.707ZM91.3174 153.195V140.283H95.0614V153.195H91.3174ZM93.1894 138.483C92.5014 138.483 91.9414 138.283 91.5094 137.883C91.0774 137.483 90.8614 136.987 90.8614 136.395C90.8614 135.803 91.0774 135.307 91.5094 134.907C91.9414 134.507 92.5014 134.307 93.1894 134.307C93.8774 134.307 94.4374 134.499 94.8694 134.883C95.3014 135.251 95.5174 135.731 95.5174 136.323C95.5174 136.947 95.3014 137.467 94.8694 137.883C94.4534 138.283 93.8934 138.483 93.1894 138.483ZM106.384 140.091C107.408 140.091 108.32 140.299 109.12 140.715C109.936 141.115 110.576 141.739 111.04 142.587C111.504 143.419 111.736 144.491 111.736 145.803V153.195H107.992V146.379C107.992 145.339 107.76 144.571 107.296 144.075C106.848 143.579 106.208 143.331 105.376 143.331C104.784 143.331 104.248 143.459 103.768 143.715C103.304 143.955 102.936 144.331 102.664 144.843C102.408 145.355 102.28 146.011 102.28 146.811V153.195H98.5362V140.283H102.112V143.859L101.44 142.779C101.904 141.915 102.568 141.251 103.432 140.787C104.296 140.323 105.28 140.091 106.384 140.091ZM122.978 140.091C124.002 140.091 124.914 140.299 125.714 140.715C126.53 141.115 127.17 141.739 127.634 142.587C128.098 143.419 128.33 144.491 128.33 145.803V153.195H124.586V146.379C124.586 145.339 124.354 144.571 123.89 144.075C123.442 143.579 122.802 143.331 121.97 143.331C121.378 143.331 120.842 143.459 120.362 143.715C119.898 143.955 119.53 144.331 119.258 144.843C119.002 145.355 118.874 146.011 118.874 146.811V153.195H115.13V140.283H118.706V143.859L118.034 142.779C118.498 141.915 119.162 141.251 120.026 140.787C120.89 140.323 121.874 140.091 122.978 140.091ZM138.225 153.387C136.753 153.387 135.457 153.099 134.337 152.523C133.233 151.947 132.377 151.163 131.769 150.171C131.161 149.163 130.857 148.019 130.857 146.739C130.857 145.443 131.153 144.299 131.745 143.307C132.353 142.299 133.177 141.515 134.217 140.955C135.257 140.379 136.433 140.091 137.745 140.091C139.009 140.091 140.145 140.363 141.153 140.907C142.177 141.435 142.985 142.203 143.577 143.211C144.169 144.203 144.465 145.395 144.465 146.787C144.465 146.931 144.457 147.099 144.441 147.291C144.425 147.467 144.409 147.635 144.393 147.795H133.905V145.611H142.425L140.985 146.259C140.985 145.587 140.849 145.003 140.577 144.507C140.305 144.011 139.929 143.627 139.449 143.355C138.969 143.067 138.409 142.923 137.769 142.923C137.129 142.923 136.561 143.067 136.065 143.355C135.585 143.627 135.209 144.019 134.937 144.531C134.665 145.027 134.529 145.619 134.529 146.307V146.883C134.529 147.587 134.681 148.211 134.985 148.755C135.305 149.283 135.745 149.691 136.305 149.979C136.881 150.251 137.553 150.387 138.321 150.387C139.009 150.387 139.609 150.283 140.121 150.075C140.649 149.867 141.129 149.555 141.561 149.139L143.553 151.299C142.961 151.971 142.217 152.491 141.321 152.859C140.425 153.211 139.393 153.387 138.225 153.387ZM146.958 153.195V140.283H150.534V143.931L150.03 142.875C150.414 141.963 151.03 141.275 151.878 140.811C152.726 140.331 153.758 140.091 154.974 140.091V143.547C154.814 143.531 154.67 143.523 154.542 143.523C154.414 143.507 154.278 143.499 154.134 143.499C153.11 143.499 152.278 143.795 151.638 144.387C151.014 144.963 150.702 145.867 150.702 147.099V153.195H146.958Z" fill="#78866B"/>
</svg>
